<svg width="61" height="32" viewBox="0 0 61 32" fill="none" xmlns="http://www.w3.org/2000/svg">
<path fill-rule="evenodd" clip-rule="evenodd" d="M0 0H61V22.7933H0V0Z" fill="#F2042C"/>
<path fill-rule="evenodd" clip-rule="evenodd" d="M5.0022 18.3077L11.4025 4.72436H17.5409L23.9225 18.3077H18.514L17.5409 15.9728H11.4025L10.4107 18.3077H5.0022ZM14.4717 7.96731L12.4131 12.9893H16.5303L14.4717 7.96731ZM25.3074 4.72436H34.0471C36.1618 4.72436 37.5841 5.09498 38.314 5.8177C39.0625 6.54041 39.4181 7.33725 39.4181 8.18969C39.4181 8.85681 39.1561 9.44981 38.6134 9.95015C38.0707 10.4505 37.4157 10.8026 36.6109 11.0064V11.062C37.5279 11.2103 38.4075 11.5624 39.2122 12.0998C40.0357 12.6372 40.4287 13.4525 40.4287 14.5273C40.4287 15.1945 40.2228 15.8245 39.8111 16.399C39.3807 16.9735 38.7257 17.4367 37.8461 17.7888C36.9478 18.1409 35.8436 18.3077 34.5336 18.3077H25.3074V4.72436ZM30.3603 10.0799H32.475C33.3546 10.0799 33.9722 9.95015 34.2903 9.69071C34.6272 9.44981 34.7956 9.13478 34.7956 8.80122C34.7956 8.39353 34.6085 8.0785 34.2342 7.81907C33.8599 7.57816 33.2798 7.44844 32.475 7.44844H30.3603V10.0799ZM30.3603 15.6022H32.6809C34.4775 15.6022 35.3945 15.1203 35.3945 14.1567C35.3945 13.5637 35.1138 13.1931 34.5711 13.0449C34.0471 12.8781 33.4108 12.8039 32.6809 12.8039H30.3603V15.6022ZM55.7558 17.6962C54.4458 18.3633 52.8177 18.6969 50.8714 18.6969C49.5614 18.6969 48.3262 18.5301 47.2033 18.1965C46.0617 17.8444 45.0699 17.3626 44.2652 16.7326C43.4417 16.1025 42.7867 15.3427 42.3376 14.4532C41.8884 13.5637 41.6638 12.5816 41.6638 11.5253C41.6638 10.4134 41.9071 9.41275 42.375 8.52325C42.8616 7.61522 43.5166 6.87398 44.3774 6.24392C45.2196 5.61386 46.2115 5.15058 47.3156 4.81702C48.4198 4.50199 49.5801 4.33521 50.7965 4.33521C51.6574 4.33521 52.5182 4.42786 53.3791 4.61317C54.24 4.77995 55.026 5.05792 55.7558 5.42854V9.37568C54.502 8.28234 53.0797 7.74494 51.4702 7.74494C50.5719 7.74494 49.7672 7.91172 49.0748 8.24528C48.3636 8.57884 47.8209 9.04212 47.4466 9.63512C47.0536 10.2281 46.8665 10.8952 46.8665 11.6365C46.8665 12.3221 47.0536 12.9522 47.4279 13.5081C47.8022 14.0641 48.3262 14.5088 49.0186 14.8238C49.7111 15.1389 50.5345 15.3057 51.4702 15.3057C53.0422 15.3057 54.4833 14.8053 55.7558 13.8232V17.6962Z" fill="#FEFEFE"/>
<path fill-rule="evenodd" clip-rule="evenodd" d="M2.17704 28.2257H5.0946C4.99988 27.8825 4.73465 27.6 4.31785 27.3779C3.88211 27.1559 3.37059 27.055 2.76434 27.055C2.36649 27.055 1.96864 27.0954 1.58974 27.1963C1.21084 27.2972 0.850877 27.4385 0.528809 27.6201V26.1669C0.775096 26.0862 1.05927 26.0054 1.3624 25.9449C1.66552 25.8843 1.96864 25.8238 2.25282 25.8036C2.55595 25.7632 2.84012 25.743 3.10536 25.743C3.76844 25.743 4.37469 25.8238 4.9241 25.9852C5.47351 26.1265 5.96608 26.3284 6.36393 26.6109C6.78073 26.8733 7.1028 27.1963 7.31119 27.5798C7.53854 27.9431 7.65221 28.3669 7.65221 28.7908C7.65221 29.3156 7.53854 29.7798 7.2733 30.1835C7.02702 30.5872 6.686 30.9303 6.26921 31.1927C5.83347 31.4753 5.34089 31.6771 4.79148 31.7982C4.26102 31.9395 3.69266 32 3.10536 32C2.48017 32 1.96864 31.9597 1.5329 31.8789C1.11611 31.778 0.775096 31.6973 0.528809 31.5964V30.1229C1.19189 30.5064 1.96864 30.7083 2.87802 30.7083C3.35165 30.7083 3.74949 30.6477 4.09051 30.5266C4.43152 30.4055 4.69676 30.244 4.86726 30.0422C5.05671 29.8605 5.17039 29.6385 5.18933 29.4165H2.17704V28.2257ZM10.134 25.9247H17.0869V31.8386H14.5293V27.3376H12.6916V29.6789C12.6916 29.9615 12.6727 30.2239 12.6159 30.4661C12.559 30.6881 12.4075 30.9303 12.1991 31.1523C11.9907 31.3743 11.6496 31.556 11.195 31.6973C10.7403 31.8386 10.134 31.9193 9.37622 31.9193C8.95943 31.9193 8.61841 31.8991 8.31529 31.8386V30.4257C8.54263 30.4661 8.73209 30.4862 8.8647 30.4862C9.22466 30.4862 9.50884 30.4257 9.67935 30.345C9.8688 30.244 9.98247 30.1028 10.0393 29.9211C10.1151 29.7394 10.134 29.4972 10.134 29.1945V25.9247ZM18.9625 31.8386V25.9247H24.4566V27.3376H21.5391V28.1651H24.1724V29.4771H21.5391V30.4257H24.4566V31.8386H18.9625ZM26.067 31.8386V25.9247H28.6246V28.4073L31.3716 25.9247H34.3839L30.9169 28.7908L34.4786 31.8386H31.2769L28.6246 29.2954V31.8386H26.067ZM36.7142 31.8386V27.3376H34.706V25.9247H41.2989V27.3376H39.2718V31.8386H36.7142ZM42.4356 31.8386V25.9247H46.2815C46.9067 25.9247 47.4372 25.9852 47.8729 26.1064C48.3086 26.2275 48.6497 26.3889 48.9149 26.5908C49.1612 26.7926 49.3506 26.9944 49.4643 27.2165C49.559 27.4385 49.6159 27.6807 49.6159 27.9027C49.6159 28.1247 49.559 28.3468 49.4643 28.589C49.3506 28.811 49.1612 29.0128 48.8959 29.2147C48.6497 29.4165 48.3086 29.578 47.8729 29.6991C47.4372 29.8202 46.9067 29.8807 46.2815 29.8807H44.9932V31.8386H42.4356ZM44.9932 27.2165V28.589H45.7321C46.5657 28.589 46.9825 28.3669 46.9825 27.9027C46.9825 27.4587 46.5657 27.2165 45.7321 27.2165H44.9932ZM55.5647 32C54.75 32 54.0301 31.9193 53.4049 31.7578C52.7987 31.5762 52.2682 31.334 51.8703 31.0514C51.4535 30.7486 51.1504 30.4257 50.942 30.0422C50.7336 29.6587 50.6389 29.2752 50.6389 28.8715C50.6389 28.3266 50.8284 27.822 51.1883 27.3376C51.5483 26.8733 52.1166 26.4898 52.8555 26.1871C53.5944 25.9045 54.5037 25.743 55.5647 25.743C56.3604 25.743 57.0803 25.844 57.7055 26.0054C58.3307 26.1871 58.8422 26.4091 59.24 26.7119C59.6568 26.9944 59.9599 27.3376 60.1683 27.7211C60.3767 28.0844 60.4715 28.4679 60.4715 28.8715C60.4715 29.2954 60.3767 29.6789 60.1683 30.0624C59.9599 30.4257 59.6568 30.7688 59.24 31.0514C58.8422 31.3542 58.3307 31.5964 57.7055 31.7578C57.0803 31.9193 56.3604 32 55.5647 32ZM55.5647 30.5872C55.9625 30.5872 56.3414 30.5266 56.6824 30.3853C57.0424 30.2642 57.3076 30.0624 57.516 29.8202C57.7244 29.5578 57.8381 29.255 57.8381 28.8715C57.8381 28.5082 57.7244 28.2055 57.516 27.9431C57.3076 27.7009 57.0424 27.499 56.6824 27.3779C56.3414 27.2366 55.9625 27.1761 55.5647 27.1761C55.1479 27.1761 54.769 27.2366 54.4279 27.3779C54.068 27.499 53.8027 27.7009 53.5944 27.9431C53.386 28.2055 53.2723 28.5082 53.2723 28.8715C53.2723 29.255 53.386 29.5578 53.5944 29.8202C53.8027 30.0624 54.068 30.2642 54.4279 30.3853C54.769 30.5266 55.1479 30.5872 55.5647 30.5872Z" fill="white"/>
</svg>
